<?xml version="1.0" encoding="iso-8859-1"?>
<!-- Generator: Adobe Illustrator 21.0.0, SVG Export Plug-In . SVG Version: 6.00 Build 0)  -->
<svg xmlns="http://www.w3.org/2000/svg" xmlns:xlink="http://www.w3.org/1999/xlink" version="1.1" id="Capa_1" x="0px" y="0px" viewBox="0 0 512 512" style="enable-background:new 0 0 512 512;" xml:space="preserve" width="512" height="512">
<g>
	<g>
		<path style="fill:#76E2F8;" d="M106.015,512c-24.814,0-45-20.186-45-45c0-7.866,2.065-15.63,5.991-22.456L93.021,399.5    c5.361-9.287,20.625-9.287,25.986,0l26.001,45.015c3.94,6.855,6.006,14.619,6.006,22.485C151.015,491.814,130.829,512,106.015,512    z"/>
	</g>
	<g>
		<path style="fill:#76E2F8;" d="M265.014,444.5l-26.1-45c-2.699-4.501-7.8-6.901-12.9-6.901s-10.201,2.401-12.9,6.901l-26.1,45    c-3.9,6.899-6,14.7-6,22.5c0,24.899,20.099,45,45,45s45-20.101,45-45C271.015,459.2,268.914,451.399,265.014,444.5z"/>
	</g>
	<g>
		<path style="fill:#25D9F8;" d="M346.015,512c-24.814,0-45-20.186-45-45c0-7.866,2.065-15.63,5.991-22.456l26.016-45.044    c5.361-9.287,20.625-9.287,25.986,0l26.001,45.015c3.94,6.855,6.006,14.619,6.006,22.485C391.015,491.814,370.829,512,346.015,512    z"/>
	</g>
	<g>
		<path style="fill:#E0F3FC;" d="M331.015,181c-3.3,0-6.599,0.3-9.901,0.601c-17.1-36.901-53.699-60.601-95.1-60.601    s-77.999,23.699-95.099,60.601c-52.5-5.7-99.901,36.599-99.901,89.399c0,49.501,40.499,90,90,90h210c49.501,0,90-40.499,90-90    S380.515,181,331.015,181z"/>
	</g>
	<path style="fill:#FCD82D;" d="M472.68,106.274c-5.112-2.563-11.147-1.992-15.732,1.436c-10.649,8.042-23.071,12.29-35.933,12.29   c-33.091,0-60-26.909-60-60c0-12.861,4.248-25.283,12.29-35.933c3.413-4.556,3.823-10.649,1.289-15.747   C372.06,3.237,366.698,0,361.015,0c-66.167,0-120,53.833-120,120c0,8.013,0.806,16.04,2.373,23.862l144.785,92.593   c1.289,0,2.593-0.161,3.896-0.513c52.368-14.004,88.945-61.685,88.916-116.25C480.985,114.009,477.763,108.809,472.68,106.274z"/>
	<path style="fill:#BDD9F1;" d="M421.015,271c0,49.501-40.499,90-90,90h-105V121c41.4,0,77.999,23.699,95.1,60.601   c3.301-0.3,6.601-0.601,9.901-0.601C380.515,181,421.015,221.499,421.015,271z"/>
	<path style="fill:#25D9F8;" d="M271.015,467c0,24.899-20.1,45-45,45V392.599c5.099,0,10.201,2.401,12.9,6.901l26.1,45   C268.914,451.399,271.015,459.2,271.015,467z"/>
</g>















</svg>
