<?xml version="1.0" encoding="iso-8859-1"?>
<!-- Generator: Adobe Illustrator 21.0.0, SVG Export Plug-In . SVG Version: 6.00 Build 0)  -->
<svg xmlns="http://www.w3.org/2000/svg" xmlns:xlink="http://www.w3.org/1999/xlink" version="1.1" id="Capa_1" x="0px" y="0px" viewBox="0 0 512 512" style="enable-background:new 0 0 512 512;" xml:space="preserve" width="512" height="512">
<g>
	<g>
		<path style="fill:#76E2F8;" d="M512,421c0,8.399-6.599,15-15,15H15c-8.401,0-15-6.601-15-15c0-8.401,6.599-15,15-15h482    C505.401,406,512,412.599,512,421z"/>
	</g>
	<g>
		<path style="fill:#76E2F8;" d="M482,481c0,8.399-6.599,15-15,15H45c-8.401,0-15-6.601-15-15c0-8.401,6.599-15,15-15h422    C475.401,466,482,472.599,482,481z"/>
	</g>
	<path style="fill:#BDD9F1;" d="M481,166c0,49.499-40.499,90-90,90l-135-17.1l-30-3.9l-117.001-15C97.301,204.399,91,185.499,91,166   c0-49.501,40.499-90,90-90c3.3,0,6.599,0.3,9.901,0.599C198.701,59.5,211,45.099,226,34.9c9-6.301,19.2-11.4,30-14.7   c9.6-2.701,19.501-4.2,30-4.2c41.4,0,77.999,23.699,95.099,60.599C433.299,70.899,481,113.2,481,166z"/>
	<path style="fill:#99B9D9;" d="M481,166c0,49.499-40.499,90-90,90l-135-17.1V20.2c9.6-2.701,19.501-4.2,30-4.2   c41.4,0,77.999,23.699,95.099,60.599C433.299,70.899,481,113.2,481,166z"/>
	<g>
		<path style="fill:#E0F3FC;" d="M321.099,196.599C308.2,168.999,284.5,148.599,256,140.2c-9.6-2.701-19.799-4.2-30-4.2    c-41.4,0-77.999,23.699-95.099,60.599C78.401,190.899,31,233.2,31,286c0,49.499,40.499,90,90,90h210c49.501,0,90-40.501,90-90    C421,233.2,373.599,190.899,321.099,196.599z"/>
	</g>
	<path style="fill:#BDD9F1;" d="M331,376h-75V140.2c28.5,8.399,52.2,28.799,65.099,56.398C373.599,190.899,421,233.2,421,286   C421,335.499,380.501,376,331,376z"/>
	<path style="fill:#25D9F8;" d="M482,481c0,8.399-6.599,15-15,15H256v-30h211C475.401,466,482,472.599,482,481z"/>
	<path style="fill:#25D9F8;" d="M512,421c0,8.399-6.599,15-15,15H256v-30h241C505.401,406,512,412.599,512,421z"/>
</g>















</svg>
