<?xml version="1.0" encoding="iso-8859-1"?>
<!-- Generator: Adobe Illustrator 21.0.0, SVG Export Plug-In . SVG Version: 6.00 Build 0)  -->
<svg xmlns="http://www.w3.org/2000/svg" xmlns:xlink="http://www.w3.org/1999/xlink" version="1.1" id="Capa_1" x="0px" y="0px" viewBox="0 0 511.401 511.401" style="enable-background:new 0 0 511.401 511.401;" xml:space="preserve" width="512" height="512">
<g>
	<g>
		<path style="fill:#76E2F8;" d="M466.602,263.901l-78.001-135c-2.699-4.501-7.8-6.901-12.9-6.901s-10.201,2.401-12.9,6.901    l-78.001,135c-9.3,15.899-14.099,34.2-14.099,52.5c0,57.9,47.1,105,105,105s105-47.1,105-105    C480.701,298.102,475.901,279.8,466.602,263.901z"/>
	</g>
	<g>
		<path style="fill:#76E2F8;" d="M226.602,353.901l-78.001-135c-2.699-4.501-7.8-6.901-12.9-6.901s-10.201,2.401-12.9,6.901    l-78.001,135c-9.3,15.899-14.099,34.2-14.099,52.5c0,57.9,47.1,105,105,105s105-47.1,105-105    C240.701,388.102,235.901,369.8,226.602,353.901z"/>
	</g>
	<g>
		<path style="fill:#76E2F8;" d="M290.8,97.901l-52.2-91C235.901,2.401,230.8,0,225.701,0s-10.201,2.401-12.9,6.901l-52.2,91    c-6.301,11.4-9.901,24.3-9.901,37.5c0,41.4,33.6,75,75,75s75-33.6,75-75C300.701,122.201,297.101,109.301,290.8,97.901z"/>
	</g>
	<path style="fill:#25D9F8;" d="M226.602,353.901c9.3,15.899,14.099,34.2,14.099,52.5c0,57.9-47.1,105-105,105V212   c5.099,0,10.201,2.401,12.9,6.901L226.602,353.901z"/>
	<path style="fill:#25D9F8;" d="M290.8,97.902c6.301,11.4,9.901,24.3,9.901,37.5c0,41.4-33.6,75-75,75V0.001   c5.099,0,10.201,2.401,12.9,6.901L290.8,97.902z"/>
	<path style="fill:#25D9F8;" d="M480.701,316.402c0,57.9-47.1,105-105,105V122.001c5.099,0,10.201,2.401,12.9,6.901l78.001,135   C475.901,279.802,480.701,298.103,480.701,316.402z"/>
</g>















</svg>
