<?xml version="1.0" encoding="iso-8859-1"?>
<!-- Generator: Adobe Illustrator 21.0.0, SVG Export Plug-In . SVG Version: 6.00 Build 0)  -->
<svg xmlns="http://www.w3.org/2000/svg" xmlns:xlink="http://www.w3.org/1999/xlink" version="1.1" id="Capa_1" x="0px" y="0px" viewBox="0 0 511.971 511.971" style="enable-background:new 0 0 511.971 511.971;" xml:space="preserve" width="512" height="512">
<g>
	<path style="fill:#FCD82D;" d="M503.665,122.26c-5.098-2.563-11.162-1.978-15.732,1.436c-10.649,8.042-23.071,12.29-35.933,12.29   c-33.091,0-60-26.909-60-60c0-12.861,4.248-25.283,12.29-35.933c3.413-4.556,3.823-10.649,1.289-15.747   c-2.534-5.083-7.896-8.32-13.579-8.32c-66.167,0-120,53.833-120,120c0,8.013,0.806,16.04,2.373,23.862   c1.626,8.115,9.551,13.418,17.666,11.733l112.646,69.741c1.787,6.694,7.852,11.118,14.473,11.118c1.289,0,2.593-0.161,3.896-0.513   c52.368-14.004,88.945-61.685,88.916-116.25C511.971,129.994,508.748,124.794,503.665,122.26z"/>
	<path style="fill:#BDD9F1;" d="M451,285.985c0,49.501-40.499,90-90,90l-165-21l-117.001-15C67.301,324.386,61,305.486,61,285.985   c0-49.501,40.499-90,90-90c3.3,0,6.599,0.3,9.901,0.601c7.8-17.1,20.099-31.501,35.099-41.7c17.1-12.001,37.8-18.9,60-18.9   c41.4,0,77.999,23.699,95.099,60.601C403.299,190.886,451,233.185,451,285.985z"/>
	<path style="fill:#99B9D9;" d="M451,285.985c0,49.501-40.499,90-90,90l-165-21V154.886c17.1-12.001,37.8-18.9,60-18.9   c41.4,0,77.999,23.699,95.099,60.601C403.299,190.886,451,233.185,451,285.985z"/>
	<g>
		<path style="fill:#E0F3FC;" d="M291.099,316.586c-17.1-36.901-53.699-60.601-95.099-60.601s-77.999,23.699-95.099,60.601    C48.401,310.886,0,353.185,0,405.985c0,49.501,41.499,90,91,90h210c49.501,0,90-40.499,90-90    C391,353.185,343.599,310.886,291.099,316.586z"/>
	</g>
	<path style="fill:#BDD9F1;" d="M391,405.985c0,49.501-40.499,90-90,90H196v-240c41.4,0,77.999,23.699,95.099,60.601   C343.599,310.886,391,353.185,391,405.985z"/>
</g>















</svg>
